PathFileType	4	(X/Y/Z)	pose_F01_0-88.trc
DataRate	CameraRate	NumFrames	NumMarkers	Units	OrigDataRate	OrigDataStartFrame	OrigNumFrames
30	30	9	21	m	30	33	88
Frame#	Time	CHip			RHip			RKnee			RAnkle			RBigToe			RSmallToe			RHeel			LHip			LKnee			LAnkle			LBigToe			LSmallToe			LHeel			Neck			Nose			RShoulder			RElbow			RWrist			LShoulder			LElbow			LWrist			
		X1	Y1	Z1	X2	Y2	Z2	X3	Y3	Z3	X4	Y4	Z4	X5	Y5	Z5	X6	Y6	Z6	X7	Y7	Z7	X8	Y8	Z8	X9	Y9	Z9	X10	Y10	Z10	X11	Y11	Z11	X12	Y12	Z12	X13	Y13	Z13	X14	Y14	Z14	X15	Y15	Z15	X16	Y16	Z16	X17	Y17	Z17	X18	Y18	Z18	X19	Y19	Z19	X20	Y20	Z20	X21	Y21	Z21	
33	1.1	-0.16979495960426816	1.8399641492181207	-0.5855903684163495	-0.18238096649941474	1.8381324130713015	-0.5239256497505209	-0.19144180841786834	1.7131799160667667	-0.50617536899652	-0.17594679670846927	1.5998424672584186	-0.518227336124099	-0.20173334539950488	1.5655442474858738	-0.4860952656336623	-0.19827443980502285	1.572424586321283	-0.463968129477406	-0.17077611911801133	1.5905638496493721	-0.5357813831883337	-0.15898072596363017	1.8404459517803198	-0.6478742766795674	-0.16465519598475836	1.7185850600015364	-0.6268603926902039	-0.1600899290756388	1.5935200624648256	-0.6160047608790821	-0.1910607536352062	1.556494973281532	-0.5877659176533483	-0.18329278513088584	1.557987512855732	-0.6170548542023826	-0.15137446803680182	1.5832699381308328	-0.6103928034577915	-0.15383551184896538	1.9911532980837887	-0.6173375111783362	-0.1754764670893382	2.0546944899671034	-0.6020820985187118	-0.17194964206444896	1.9883220500856909	-0.5260418844695992	-0.1728878440621475	1.908607385533967	-0.4821721040421344	-0.20357241503558327	1.8918821136504922	-0.4849618804937845	-0.13318907163980487	1.996411711865077	-0.7086809597487035	-1.4554466627228975	1.8368678079820326	0.6399504557814389	-0.8963875283173852	1.8498659204079446	0.054789703297825176
34	1.1333333333333333	-0.16979495960426816	1.8399641492181207	-0.5855903684163495	-0.18238096649941474	1.8381324130713015	-0.5239256497505209	-0.19144180841786834	1.7131799160667667	-0.50617536899652	-0.17594679670846927	1.5998424672584186	-0.518227336124099	-0.20173334539950488	1.5655442474858738	-0.4860952656336623	-0.19827443980502285	1.572424586321283	-0.463968129477406	-0.17077611911801133	1.5905638496493721	-0.5357813831883337	-0.15898072596363017	1.8404459517803198	-0.6478742766795674	-0.16465519598475836	1.7185850600015364	-0.6268603926902039	-0.1600899290756388	1.5935200624648256	-0.6160047608790821	-0.1910607536352062	1.556494973281532	-0.5877659176533483	-0.18329278513088584	1.557987512855732	-0.6170548542023826	-0.15137446803680182	1.5832699381308328	-0.6103928034577915	-0.15383551184896538	1.9911532980837887	-0.6173375111783362	-0.1754764670893382	2.0546944899671034	-0.6020820985187118	-0.17194964206444896	1.9883220500856909	-0.5260418844695992	-0.1728878440621475	1.908607385533967	-0.4821721040421344	-0.20357241503558327	1.8918821136504922	-0.4849618804937845	-0.13318907163980487	1.996411711865077	-0.7086809597487035	-1.4749808203116868	1.8379574797598897	0.6767447467672872	-0.7721819353490664	1.8538173156221194	-0.07321983326337933
35	1.1666666666666667	-0.16979495960426816	1.8399641492181207	-0.5855903684163495	-0.18238096649941474	1.8381324130713015	-0.5239256497505209	-0.19144180841786834	1.7131799160667667	-0.50617536899652	-0.17594679670846927	1.5998424672584186	-0.518227336124099	-0.20173334539950488	1.5655442474858738	-0.4860952656336623	-0.19827443980502285	1.572424586321283	-0.463968129477406	-0.17077611911801133	1.5905638496493721	-0.5357813831883337	-0.15898072596363017	1.8404459517803198	-0.6478742766795674	-0.16465519598475836	1.7185850600015364	-0.6268603926902039	-0.1600899290756388	1.5935200624648256	-0.6160047608790821	-0.1910607536352062	1.556494973281532	-0.5877659176533483	-0.18329278513088584	1.557987512855732	-0.6170548542023826	-0.15137446803680182	1.5832699381308328	-0.6103928034577915	-0.15383551184896538	1.9911532980837887	-0.6173375111783362	-0.1754764670893382	2.0546944899671034	-0.6020820985187118	-0.17194964206444896	1.9883220500856909	-0.5260418844695992	-0.1728878440621475	1.908607385533967	-0.4821721040421344	-0.20357241503558327	1.8918821136504922	-0.4849618804937845	-0.13318907163980487	1.996411711865077	-0.7086809597487035	-1.494514977900476	1.8390471515377467	0.7135390377531355	-0.6479763423807476	1.857768710836294	-0.20122936982458395
36	1.2	-0.16979495960426816	1.8399641492181207	-0.5855903684163495	-0.18238096649941474	1.8381324130713015	-0.5239256497505209	-0.19144180841786834	1.7131799160667667	-0.50617536899652	-0.17594679670846927	1.5998424672584186	-0.518227336124099	-0.20173334539950488	1.5655442474858738	-0.4860952656336623	-0.19827443980502285	1.572424586321283	-0.463968129477406	-0.17077611911801133	1.5905638496493721	-0.5357813831883337	-0.15898072596363017	1.8404459517803198	-0.6478742766795674	-0.16465519598475836	1.7185850600015364	-0.6268603926902039	-0.1600899290756388	1.5935200624648256	-0.6160047608790821	-0.1910607536352062	1.556494973281532	-0.5877659176533483	-0.18329278513088584	1.557987512855732	-0.6170548542023826	-0.15137446803680182	1.5832699381308328	-0.6103928034577915	-0.15383551184896538	1.9911532980837887	-0.6173375111783362	-0.1754764670893382	2.0546944899671034	-0.6020820985187118	-0.17194964206444896	1.9883220500856909	-0.5260418844695992	-0.1728878440621475	1.908607385533967	-0.4821721040421344	-0.20357241503558327	1.8918821136504922	-0.4849618804937845	-0.13318907163980487	1.996411711865077	-0.7086809597487035	-1.149861751947636	1.8599626175359945	0.3491359871443632	-0.5237707494124288	1.8617201060504684	-0.32923890638578845
37	1.2333333333333334	-0.16979495960426816	1.8399641492181207	-0.5855903684163495	-0.18238096649941474	1.8381324130713015	-0.5239256497505209	-0.19144180841786834	1.7131799160667667	-0.50617536899652	-0.17594679670846927	1.5998424672584186	-0.518227336124099	-0.20173334539950488	1.5655442474858738	-0.4860952656336623	-0.19827443980502285	1.572424586321283	-0.463968129477406	-0.17077611911801133	1.5905638496493721	-0.5357813831883337	-0.15898072596363017	1.8404459517803198	-0.6478742766795674	-0.16465519598475836	1.7185850600015364	-0.6268603926902039	-0.1600899290756388	1.5935200624648256	-0.6160047608790821	-0.1910607536352062	1.556494973281532	-0.5877659176533483	-0.18329278513088584	1.557987512855732	-0.6170548542023826	-0.15137446803680182	1.5832699381308328	-0.6103928034577915	-0.15383551184896538	1.9911532980837887	-0.6173375111783362	-0.1754764670893382	2.0546944899671034	-0.6020820985187118	-0.17194964206444896	1.9883220500856909	-0.5260418844695992	-0.1728878440621475	1.908607385533967	-0.4821721040421344	-0.20357241503558327	1.8918821136504922	-0.4849618804937845	-0.13318907163980487	1.996411711865077	-0.7086809597487035	-0.8052085259947959	1.8808780835342422	-0.015267063464409092	-0.39956515644411006	1.8656715012646432	-0.45724844294699296
38	1.2666666666666666	-0.16979495960426816	1.8399641492181207	-0.5855903684163495	-0.18238096649941474	1.8381324130713015	-0.5239256497505209	-0.19144180841786834	1.7131799160667667	-0.50617536899652	-0.17594679670846927	1.5998424672584186	-0.518227336124099	-0.20173334539950488	1.5655442474858738	-0.4860952656336623	-0.19827443980502285	1.572424586321283	-0.463968129477406	-0.17077611911801133	1.5905638496493721	-0.5357813831883337	-0.15898072596363017	1.8404459517803198	-0.6478742766795674	-0.16465519598475836	1.7185850600015364	-0.6268603926902039	-0.1600899290756388	1.5935200624648256	-0.6160047608790821	-0.1910607536352062	1.556494973281532	-0.5877659176533483	-0.18329278513088584	1.557987512855732	-0.6170548542023826	-0.15137446803680182	1.5832699381308328	-0.6103928034577915	-0.15383551184896538	1.9911532980837887	-0.6173375111783362	-0.1754764670893382	2.0546944899671034	-0.6020820985187118	-0.17194964206444896	1.9883220500856909	-0.5260418844695992	-0.1728878440621475	1.908607385533967	-0.4821721040421344	-0.20357241503558327	1.8918821136504922	-0.4849618804937845	-0.13318907163980487	1.996411711865077	-0.7086809597487035	-0.4605553000419558	1.90179354953249	-0.3796701140731814	-0.27535956347579127	1.869622896478818	-0.5852579795081976
39	1.3	-0.16979495960426816	1.8399641492181207	-0.5855903684163495	-0.18238096649941474	1.8381324130713015	-0.5239256497505209	-0.19144180841786834	1.7131799160667667	-0.50617536899652	-0.17594679670846927	1.5998424672584186	-0.518227336124099	-0.20173334539950488	1.5655442474858738	-0.4860952656336623	-0.19827443980502285	1.572424586321283	-0.463968129477406	-0.17077611911801133	1.5905638496493721	-0.5357813831883337	-0.15898072596363017	1.8404459517803198	-0.6478742766795674	-0.16465519598475836	1.7185850600015364	-0.6268603926902039	-0.1600899290756388	1.5935200624648256	-0.6160047608790821	-0.1910607536352062	1.556494973281532	-0.5877659176533483	-0.18329278513088584	1.557987512855732	-0.6170548542023826	-0.15137446803680182	1.5832699381308328	-0.6103928034577915	-0.15383551184896538	1.9911532980837887	-0.6173375111783362	-0.1754764670893382	2.0546944899671034	-0.6020820985187118	-0.17194964206444896	1.9883220500856909	-0.5260418844695992	-0.1728878440621475	1.908607385533967	-0.4821721040421344	-0.20357241503558327	1.8918821136504922	-0.4849618804937845	-0.13318907163980487	1.996411711865077	-0.7086809597487035	-0.11590207408911558	1.9227090155307378	-0.7440731646819538	-0.15115397050747242	1.8735742916929925	-0.713267516069402
40	1.3333333333333333	-0.16699662334773127	1.8401945319189343	-0.5969512034835841	-0.1798830165079263	1.8396422616397137	-0.5353656976514006	-0.20541114448925124	1.7216086927284915	-0.4961844069147704	-0.1771432041763422	1.608451397636416	-0.5141172493075689	-0.20217625916939655	1.5732433141583613	-0.4874580866147535	-0.19843800086278626	1.578585319527295	-0.46922805183596017	-0.1668217504453971	1.60406664060406	-0.534023525753556	-0.1516239176257756	1.84094288750675	-0.6637652387326552	-0.16070053252168018	1.7151063673776445	-0.6348590813190644	-0.15985571540520163	1.589368844999009	-0.62063346206203	-0.1908923720070076	1.5556131224047542	-0.5929827717868112	-0.17923212220247714	1.5593645546265231	-0.6264800635082942	-0.15004299290709733	1.5798070472004477	-0.6125954024571839	-0.1534266564543591	1.9914406419268291	-0.6261113831217978	-0.17710457529766097	2.0550351031133145	-0.6083828659473434	-0.16974749003642614	1.988664146301724	-0.5370482367553213	-0.1651546295507373	1.9185214235005994	-0.5021669554841689	-0.18617279610715598	1.8646529454818552	-0.4845438772753155	-0.13433857137862873	1.9957243612220088	-0.7233654366441771	-0.12129600166117017	1.9228589562006262	-0.7541722245972555	-0.17128753112176878	1.8841842802566393	-0.6849237474314427
41	1.3666666666666667	-0.1667615921887239	1.8417694491153889	-0.6060073787698159	-0.17892861787372796	1.8412178887096624	-0.5412207835926367	-0.21093460378875908	1.7338560739525923	-0.4914820583543709	-0.17483329894589317	1.6309981984099464	-0.5154771986400442	-0.20081929163388754	1.5879849619394089	-0.4915332549437172	-0.19641723145627538	1.5940326079287044	-0.4668090656459588	-0.16451124369375758	1.630504484059522	-0.5358607755234992	-0.15048049618171416	1.8398945517400356	-0.6692744872565335	-0.1540166658321245	1.7141478571618856	-0.6420365795139001	-0.15679272353561124	1.5894816846802562	-0.6195189550837228	-0.18973343899348172	1.556973890182028	-0.5904010782693558	-0.18107214673842945	1.5578162532087005	-0.6244189391533768	-0.14935237421147424	1.5785550471815508	-0.6086115945369929	-0.15293346024648885	1.992969338519006	-0.6346399023016348	-0.17596047321050295	2.055304990379485	-0.6137345863340138	-0.16852563631372613	1.9899419742970146	-0.5425647853250949	-0.16566907652326449	1.9195695923990508	-0.5060873973348174	-0.16299100662909372	1.8674588660442162	-0.4961896335897502	-0.13502457437655785	1.997021442969805	-0.7264846570159811	-0.12430813745922883	1.9205984648865264	-0.7660137009151833	-0.17874060265852953	1.9020863574008162	-0.6751565615603907
